# xmcd
#
# Track frame offsets:
# 150
# 13407
# 33413
# 57670
# 80578
# 104704
# 127967
# 146676
# 158234
# 181808
# 201643
# 216588
#
# Disc length: 3099 seconds
#
#
# Revision: 2
# Processed by: cddbd v1.5PL3 Copyright (c) Steve Scherf et al.
# Submitted via: FreeRIP 2.70 
#
DISCID=be0c190c
DTITLE=Marcelinho Da Lua - Tranquilo
DYEAR=1900
DGENRE=
TTITLE0=Sem Bla Bla Bla
TTITLE1=Tranquilo
TTITLE2=Cotidiano
TTITLE3=Lá Fora
TTITLE4=Que Cosa Fuera
TTITLE5=Jornada
TTITLE6=Refazenda
TTITLE7=Pro Marcelinho Tocar
TTITLE8=Cristiania
TTITLE9=Palafita Sunrise
TTITLE10=Saudade
TTITLE11=Não Pode Fazer Barulho
EXTD=2003\nDeck
EXTT0=
EXTT1=
EXTT2=
EXTT3=
EXTT4=
EXTT5=
EXTT6=
EXTT7=
EXTT8=
EXTT9=
EXTT10=
EXTT11=
PLAYORDER=
